<mxfile host="app.diagrams.net" modified="2024-07-15T14:56:38.502Z" agent="Mozilla/5.0 (Macintosh; Intel Mac OS X 10.15; rv:126.0) Gecko/20100101 Firefox/126.0" version="24.6.5" etag="5GjDlzMPuyrvSYjs5QxS" type="github">
  <diagram name="Page-1" id="7YCedT8ZAGPr9KpjCS7F">
    <mxGraphModel>
      <root>
        <mxCell id="0" />
        <mxCell id="1" parent="0" />
      </root>
    </mxGraphModel>
  </diagram>
</mxfile>
